<svg xmlns="http://www.w3.org/2000/svg" viewBox="0 0 247.85186 136.49084"><g fill="#e2720f"><path d="M124.041 87.198c-.168-.164-.55-.424-1.15-.784-.134.067-.428.387-.886.956-.458.571-1.181 1.108-2.172 1.617-.658.338-1.145.443-1.463.314-.318-.128-.644-.52-.984-1.181-.677-1.32-1.145-3.645-1.396-6.976-.255-3.329-.296-7.059-.126-11.192.168-4.13.527-8.34 1.078-12.624.547-4.285 1.268-8.076 2.16-11.372-2.502-1.13-5.029-1.746-7.584-1.852-2.554-.105-4.692.284-6.404 1.165-6.135 3.155-11.378 16.067-15.734 38.736a116.462 116.462 0 0 1-1.554-7.768c-.411-2.498-.74-5.04-.983-7.626a135.547 135.547 0 0 1-.512-7.93 372.447 372.447 0 0 1-.199-8.779c-.032-5.737.602-12.21 1.897-19.425 1.296-7.21 3.112-14.628 5.446-22.252-.898-.288-1.98-.482-3.24-.583a19.895 19.895 0 0 0-3.955.093 29.42 29.42 0 0 0-4.096.792c-1.354.365-2.561.816-3.615 1.36-.922 3.725-1.69 7.706-2.303 11.939a160.422 160.422 0 0 0-1.348 13.078c-.28 4.481-.38 8.95-.298 13.41.084 4.461.365 8.779.843 12.952a205.581 205.581 0 0 0 1.897 13.785c.78 4.52 1.64 8.787 2.583 12.805.318 1.355.65 2.66.99 3.94-.324 2.543-.725 6.01-1.104 7.46a68.573 68.573 0 0 1-1.7 5.562c-.615 1.726-1.154 2.992-1.746 4.51-.547 1.406-1.436 3.168-2.233 3.383-2.708.736-5.956-.652-9.955-4.814-3.157-3.29-5.602-6.991-7.333-11.108-1.73-4.117-2.674-8.471-2.834-13.06-.091-2.972.166-5.691.77-8.15.606-2.456 1.418-4.178 2.447-5.167 1.181-1.133 2.492-.954 3.919.535 2.471 2.569 3.486 7.077 3.055 13.517 1 .223 2.01.22 3.023-.014 1.013-.229 1.827-.644 2.443-1.236.72-.689 1.18-1.65 1.384-2.883.198-1.23.152-2.54-.148-3.93-.298-1.392-.813-2.802-1.54-4.229a16.41 16.41 0 0 0-2.79-3.912c-2.372-2.467-4.917-3.675-7.64-3.63-2.72.044-5.42 1.351-8.092 3.916-2.725 2.613-4.73 5.8-6.013 9.553-1.287 3.752-1.894 7.648-1.825 11.68.068 4.033.818 8.004 2.253 11.915 1.43 3.908 3.553 7.328 6.365 10.257a24.277 24.277 0 0 0 8.238 5.655c-.065.122-.121.243-.188.365-1.402 2.492-2.448 4.834-4.65 6.827-2.417 2.184-8.02 2.114-10.71-1.278-1.896-2.383-3.75-5.31-5.557-8.773-1.81-3.464-3.544-7.303-5.199-11.516-1.651-4.216-3.183-8.748-4.589-13.598a170.91 170.91 0 0 1-3.63-15.11c5.379-4.271 11.236-9.881 13.843-14.334a6.092 6.092 0 0 0-1.766-1.51c-.69-.395-1.374-.628-2.065-.711a42.574 42.574 0 0 1-4.512 4.143c-1.576 1.254-4.994 3.742-6.532 4.962-.624-4.729-1.092-8.992-1.408-12.788-.318-3.791-.484-8.054-.47-12.782 0-.726.05-1.321-1.309-.99a45.66 45.66 0 0 0-4.398 1.33 43.437 43.437 0 0 0-4.453 1.846c-1.406.674-2.494 1.319-3.262 1.926-.314.87-.515 2.391-.602 4.57-.087 2.18-.03 4.7.18 7.566.211 2.87.533 5.959.967 9.267.431 3.31.978 6.563 1.637 9.756a7197.95 7197.95 0 0 0-5.073 4.027C4.287 84.266 2.243 85.636 0 86.916c.855 1.078 2.032 2.24 3.525 3.495 1.498 1.256 2.622 1.961 3.374 2.117l6.572-5.217a228.678 228.678 0 0 0 4.486 13.937 244.424 244.424 0 0 0 5.018 12.95c1.704 4.043 3.422 7.665 5.15 10.868 1.728 3.207 3.327 5.734 4.796 7.582 1.096 1.381 2.713 2.392 4.842 3.02 2.125.632 4.437.898 6.931.805 2.49-.098 4.87-.406 7.403-1.161 2.529-.756 4.216-1.739 6.086-3.325.967-.818 2.28-2.243 3.027-3.83.742-1.585 1.07-2.951 1.682-4.868a65.82 65.82 0 0 0 .715-2.441c.632.154 1.268.282 1.906.377 2.486.379 4.91.304 7.264-.23 2.35-.532 4.637-1.328 6.299-3.012 1.868-1.892 1.845-2.826 2.372-4.546.517-1.69.689-3.06 1.108-5.096.422-2.03.703-4.102.847-6.215.006-.086.002-.165.008-.248 1.04 2.952 2.097 5.497 3.171 7.582.272.529.723 1.088 1.362 1.675a44.04 44.04 0 0 0 1.934 1.696c.65.541 1.277.948 1.879 1.222.6.275 1 .362 1.197.261.263-.136.492-.502.685-1.102a4.7 4.7 0 0 0 .229-1.744 98.384 98.384 0 0 1-.173-13.109c.231-4.498.69-8.88 1.37-13.149.68-4.267 1.556-8.325 2.624-12.168 1.067-3.843 2.332-7.265 3.788-10.268.456-.9.959-1.825 1.514-2.778.553-.952.928-1.479 1.124-1.58.264-.136.466-.069.6.193.079 4.046.223 7.974.434 11.785.206 3.813.486 7.275.836 10.39s.746 5.79 1.183 8.022c.44 2.233.914 3.846 1.425 4.835a6.687 6.687 0 0 0 1.615 2.046 8.479 8.479 0 0 0 2.204 1.37c.8.338 1.623.518 2.47.544.844.023 1.598-.135 2.259-.474.526-.273 1.215-.877 2.068-1.815a56.871 56.871 0 0 0 2.529-2.988c.832-1.056 1.52-2.032 2.056-2.934.423-.71.636-1.22.644-1.534a.428.428 0 0 0-.042-.215 1.764 1.764 0 0 0-.355-.443"/><path d="M134.193 62.69c.713-3.274 1.686-6.234 2.92-8.882 1.234-2.646 2.706-4.9 4.427-6.76 1.718-1.855 3.505-3.192 5.356-4.01 1.072 5.01.29 10.131-2.346 15.356-2.642 5.226-6.424 10.06-11.356 14.493-.048-3.526.284-6.923 1-10.197m68.84-26.944c-.736-.34-1.597-.64-2.578-.894a25.49 25.49 0 0 0-3.091-.592 15.403 15.403 0 0 0-3.009-.115 22.017 22.017 0 0 0-2.893 3.894 42.574 42.574 0 0 0-2.079 4.054 36.965 36.965 0 0 0-1.453 3.795 61.854 61.854 0 0 0-.911 3.118 30.735 30.735 0 0 1-1.864 4.84 64.265 64.265 0 0 1-2.512 4.727 111.253 111.253 0 0 1-2.653 4.307 194.527 194.527 0 0 0-2.27 3.584c-2.64 4.182-4.713 7.288-6.215 9.318-1.505 2.034-2.773 3.298-3.81 3.799a3.752 3.752 0 0 1-.525-.606c-.197-.274-.316-.693-.353-1.262-.065-.924.008-2.18.223-3.765.21-1.584.51-3.211.896-4.883a180.56 180.56 0 0 1 1.17-4.795c.394-1.528.742-2.693 1.048-3.499 2.674-7.827 5.168-13.854 7.486-18.084 2.316-4.23 3.77-6.723 4.362-7.478a6.52 6.52 0 0 0-2.188-1.402 20.588 20.588 0 0 0-2.628-.84c-.91-.22-1.793-.358-2.652-.406a18.19 18.19 0 0 0-2.253-.006c-2.161 1.793-4.157 4.195-5.982 7.214a70.377 70.377 0 0 0-4.855 9.656 99.325 99.325 0 0 0-3.626 10.371c-1.011 3.497-1.743 6.62-2.195 9.365a27.84 27.84 0 0 0-.407 4.206c-.002.073 0 .16 0 .237-.15.265-.281.508-.437.78a44.526 44.526 0 0 1-3.597 5.375 30.9 30.9 0 0 1-4.439 4.625c-1.624 1.372-3.4 2.322-5.33 2.857-1 .271-1.894.23-2.687-.128-.792-.358-1.485-.917-2.078-1.675a11.952 11.952 0 0 1-1.52-2.583 21.358 21.358 0 0 1-1.01-2.839 19.387 19.387 0 0 1-.345-1.46 20.372 20.372 0 0 0-.314-1.358c4.08-3.045 7.573-6.01 10.474-8.884 2.902-2.877 5.217-5.84 6.954-8.896a25.833 25.833 0 0 0 3.219-9.887c.411-3.534.148-7.557-.786-12.071-3.864-2.86-7.5-4.05-10.906-3.572-2.36.648-4.591 1.84-6.69 3.572-2.1 1.732-4.02 3.839-5.762 6.317-1.738 2.48-3.248 5.241-4.524 8.284a52.678 52.678 0 0 0-2.948 9.409 45.585 45.585 0 0 0-1.01 9.739c.015 3.266.424 6.364 1.233 9.293 1.183 4.294 3.568 7.578 7.158 9.859 3.588 2.281 7.93 3.025 13.019 2.24 3.215-1.731 6.347-4.535 9.397-8.415 1.24-1.579 2.374-3.295 3.448-5.09.379.922.861 1.78 1.546 2.507.885.948 1.904 1.74 3.057 2.378 1.15.64 2.36 1.114 3.633 1.422 1.27.308 2.473.422 3.612.347.492-.108 1.127-.474 1.907-1.094.778-.624 1.594-1.461 2.451-2.519a197.95 197.95 0 0 0 2.332-3.468 703.96 703.96 0 0 0 3.15-4.81c1.068-1.639 2.059-3.061 2.977-4.263.917-1.201 1.52-1.815 1.8-1.833-.28 1.09-.37 2.384-.269 3.874.083 1.211.414 2.652.995 4.327a8.3 8.3 0 0 0 3.013 4.076c.891.513 1.833.981 2.828 1.413.995.433 1.984.81 2.97 1.136a23.12 23.12 0 0 0 2.677.726c.796.16 1.44.222 1.94.188.07-.004.138-.047.205-.122.134-.154.197-.265.193-.332-.025-.356-.179-.776-.462-1.256a20.994 20.994 0 0 1-.93-1.81c-.334-.727-.665-1.632-.989-2.718-.324-1.082-.539-2.375-.64-3.868-.19-2.771.075-5.644.798-8.623a78.277 78.277 0 0 1 2.808-9.032 238.29 238.29 0 0 1 3.752-9.311 119.826 119.826 0 0 0 3.63-9.57c-.386-.402-.945-.773-1.687-1.115M215.53 60.47c-.147-1.74.108-4.307.76-7.706.65-3.398 1.552-7.174 2.691-11.328a232.24 232.24 0 0 1 3.973-12.895 225.28 225.28 0 0 1 4.636-12.515c1.584-3.9 3.132-7.294 4.64-10.179 1.509-2.887 2.868-4.834 4.082-5.847 1.045.107 2.198.48 3.454 1.118a23.48 23.48 0 0 1 3.548 2.231 21.265 21.265 0 0 1 2.958 2.723c.86.964 1.385 1.83 1.58 2.59-3.055 2.984-6.028 6.63-8.907 10.928-2.883 4.303-5.486 9.02-7.812 14.147-2.324 5.132-4.28 10.57-5.871 16.318a99.404 99.404 0 0 0-3.195 17.458c-.79-.127-1.57-.306-2.334-.533a5.385 5.385 0 0 1-1.988-1.05c-.561-.47-1.04-1.142-1.438-2.02-.4-.874-.657-2.021-.776-3.44m.042 25.8a4.896 4.896 0 0 1-2.269-.344 8.635 8.635 0 0 1-1.991-1.096 6.476 6.476 0 0 1-1.437-1.437c-.369-.52-.565-.942-.594-1.264-.066-.774-.054-1.783.037-3.023a21.29 21.29 0 0 1 .57-3.602c.291-1.16.694-2.166 1.207-3.021.51-.855 1.12-1.313 1.831-1.374 1.803-.154 3.678.325 5.618 1.425 1.943 1.1 3.994 2.589 3.994 6.03 0 2.236-3.88 5.822-4.534 6.527a3.65 3.65 0 0 1-2.432 1.18"/><path d="M127.39 84.548s-1.915 2.358-3.24 4.27c-1.325 1.917-1.55-2.088-1.55-2.088l3.102-3.615 1.688 1.433z"/></g></svg>